<svg width="88" height="47" viewBox="0 0 88 47" fill="none" xmlns="http://www.w3.org/2000/svg">
<path d="M57.5793 29.7427V31.8049H53.6338L53.6117 29.8884C53.6117 26.6589 52.1914 25.3232 49.7917 25.3232C47.3921 25.3232 45.9718 26.6589 45.9718 29.8884V33.8009H42.0534V29.7427C42.0534 24.7405 44.9432 21.9726 49.8169 21.9726C54.6905 21.9726 57.5803 24.7405 57.5803 29.7427H57.5793Z" fill="white"/>
<path d="M38.1168 21.9999C42.9904 21.9999 45.8803 24.7678 45.8803 29.7701V33.8282H41.9619V29.9157C41.9619 26.6862 40.5657 25.3505 38.1419 25.3505C35.7423 25.3505 34.322 26.6862 34.322 29.9157L34.3069 31.8323H30.3654L30.3554 29.7701C30.3554 24.7678 33.2452 21.9999 38.1188 21.9999H38.1168Z" fill="white"/>
<path d="M47.4988 33.706C47.4988 31.7715 45.9178 30.2041 43.9672 30.2041C42.0165 30.2041 40.4355 31.7725 40.4355 33.706C40.4355 34.8327 40.9739 35.8316 41.8066 36.472L40.9829 41.5585H46.9524L46.1287 36.472C46.9614 35.8316 47.4998 34.8317 47.4998 33.706H47.4988Z" fill="white"/>
<path d="M46.7188 33.5645C46.7188 32.0576 45.4864 30.8354 43.9666 30.8354C42.4469 30.8354 41.2144 32.0576 41.2144 33.5645C41.2144 34.4423 41.6333 35.2209 42.2832 35.7194L41.6413 39.682H46.293L45.6511 35.7194C46.3 35.2199 46.7198 34.4414 46.7198 33.5645H46.7188Z" fill="white"/>
<path d="M69.1864 24.2455C69.1834 23.1614 68.2965 22.2826 67.2016 22.2826C66.1067 22.2826 65.2168 23.1642 65.2168 24.2511H65.2208V32.9899C65.2208 36.2195 63.8005 37.5552 61.4009 37.5552C59.0012 37.5552 57.5809 36.2195 57.5809 32.9899V31.8037H53.6314V33.1356C53.6314 38.1379 56.5513 40.9058 61.425 40.9058C66.2986 40.9058 69.1874 38.1379 69.1874 33.1356V24.2455H69.1854H69.1864Z" fill="#00A19A"/>
<path d="M18.784 24.2455C18.787 23.1614 19.674 22.2826 20.7688 22.2826C21.8647 22.2826 22.7536 23.1642 22.7536 24.2511H22.7496V32.9899C22.7496 36.2195 24.1699 37.5552 26.5696 37.5552C28.9943 37.5552 30.3654 36.2195 30.3654 32.9899V31.8037H34.3079V33.1356C34.3079 38.1379 31.4181 40.9058 26.5445 40.9058C21.6708 40.9058 18.782 38.1379 18.782 33.1356V24.2455H18.784Z" fill="#00A19A"/>
<path d="M68.0227 16.0363L45.2938 3.29328C44.9824 3.12206 44.6218 3.02652 44.2552 3.01801H44.198V3.15801L44.1588 3.01801H44.1045C43.7349 3.02747 43.3753 3.12301 43.0619 3.29517L27.2417 12.1645V10.6131C27.2417 9.59718 26.3076 8.77041 25.1605 8.77041C24.0134 8.77041 23.0792 9.59718 23.0792 10.6131V14.4992L20.3341 16.0382C19.3597 16.5746 19.0604 17.7135 19.6671 18.5763C20.2728 19.439 21.5595 19.7038 22.5348 19.1665L44.1789 7.03173L65.8239 19.1675C66.1584 19.3519 66.5351 19.4465 66.9198 19.4465C67.0785 19.4465 67.2382 19.4305 67.3959 19.3983C67.9373 19.2867 68.3973 18.9953 68.6917 18.5772C69.2973 17.7145 68.998 16.5765 68.0247 16.0401L68.0227 16.0363Z" fill="#00A19A"/>
<path d="M42.8604 12.0116H39.8983C39.6326 12.0116 39.4171 12.2144 39.4171 12.4647V15.2543C39.4171 15.5046 39.6326 15.7074 39.8983 15.7074H42.8604C43.1261 15.7074 43.3416 15.5046 43.3416 15.2543V12.4647C43.3416 12.2144 43.1261 12.0116 42.8604 12.0116Z" fill="white"/>
<path d="M47.9813 12.0116H45.0192C44.7534 12.0116 44.538 12.2144 44.538 12.4647V15.2543C44.538 15.5046 44.7534 15.7074 45.0192 15.7074H47.9813C48.247 15.7074 48.4624 15.5046 48.4624 15.2543V12.4647C48.4624 12.2144 48.247 12.0116 47.9813 12.0116Z" fill="white"/>
<path d="M42.8604 16.6418H39.8983C39.6326 16.6418 39.4171 16.8447 39.4171 17.0949V19.8846C39.4171 20.1348 39.6326 20.3377 39.8983 20.3377H42.8604C43.1261 20.3377 43.3416 20.1348 43.3416 19.8846V17.0949C43.3416 16.8447 43.1261 16.6418 42.8604 16.6418Z" fill="white"/>
<path d="M47.9813 16.6418H45.0192C44.7534 16.6418 44.538 16.8447 44.538 17.0949V19.8846C44.538 20.1348 44.7534 20.3377 45.0192 20.3377H47.9813C48.247 20.3377 48.4624 20.1348 48.4624 19.8846V17.0949C48.4624 16.8447 48.247 16.6418 47.9813 16.6418Z" fill="white"/>
</svg>
