<?xml version="1.0" encoding="UTF-8"?><svg id="Layer_1" xmlns="http://www.w3.org/2000/svg" viewBox="0 0 874.04 874.04"><defs><style>.cls-1{fill:#231d45;}.cls-1,.cls-2,.cls-3{stroke-width:0px;}.cls-2{fill:#fff;}.cls-3{fill:#eb611d;}</style></defs><circle class="cls-3" cx="437.02" cy="437.02" r="437.02"/><path class="cls-1" d="m454.13,706.68c0,11.71-9.49,21.2-21.2,21.2s-21.2-9.49-21.2-21.2V185.81c0-11.71,9.49-21.2,21.2-21.2s21.2,9.49,21.2,21.2v520.87Z"/><path class="cls-1" d="m550.59,471.01c-75.64,0-137.17-61.54-137.17-137.18s61.54-137.17,137.17-137.17,137.17,61.54,137.17,137.17-61.54,137.18-137.17,137.18m0-236.69c-54.87,0-99.51,44.64-99.51,99.51s44.64,99.52,99.51,99.52,99.51-44.64,99.51-99.52-44.63-99.51-99.51-99.51"/><path class="cls-2" d="m312.04,471.01c-75.64,0-137.17-61.54-137.17-137.18s61.54-137.17,137.17-137.17,137.17,61.54,137.17,137.17-61.54,137.18-137.17,137.18m0-236.69c-54.87,0-99.51,44.64-99.51,99.51s44.64,99.52,99.51,99.52,99.51-44.64,99.51-99.52-44.63-99.51-99.51-99.51"/><rect class="cls-1" x="442.72" y="586.9" width="58.59" height="48.7" rx="5.97" ry="5.97"/><rect class="cls-1" x="442.72" y="648.48" width="58.59" height="48.7" rx="5.97" ry="5.97"/><path class="cls-3" d="m550.7,234.48c-54.87,0-99.51,44.64-99.51,99.51s44.64,99.52,99.51,99.52,99.51-44.64,99.51-99.52-44.63-99.51-99.51-99.51"/><rect class="cls-2" x="507.35" y="290.46" width="39.07" height="39.07" rx="4.79" ry="4.79"/><rect class="cls-2" x="558.32" y="290.46" width="39.07" height="39.07" rx="4.79" ry="4.79"/><rect class="cls-2" x="507.35" y="339.41" width="39.07" height="39.07" rx="4.79" ry="4.79"/><rect class="cls-2" x="558.32" y="339.41" width="39.07" height="39.07" rx="4.79" ry="4.79"/></svg>